<svg xmlns="http://www.w3.org/2000/svg" fill="" viewBox="0 0 71.19 64.34"><g id="Capa_2" data-name="Capa 2"><g id="Capa_20" data-name="Capa 20"><polygon points="34.29 63.84 13.95 63.84 13.95 61.84 25.57 61.84 40.84 47.87 42.2 49.34 28.54 61.84 34.29 61.84 34.29 63.84"/><path d="M34.79,64.34H13.45v-3H25.38l15.5-14.18,2,2.21-13.08,12h5Zm-20.34-1H33.79v-1H27.25l14.24-13-.68-.74-15,13.77H14.45Z"/><path d="M2.94,30.64C3,30.74,6,43,20.32,45.53L71.19,55.64,20.38,12.2,30.39,7H18.25l0-.22C17.55,2.86,13.63,0,8.91,0,5.33,0,0,2.37,0,8.91ZM12.21,4.5A2.25,2.25,0,1,1,10,6.75,2.25,2.25,0,0,1,12.21,4.5Z"/><polygon points="30.9 47.28 40.44 49.35 32.42 56.68 30.9 47.28"/></g></g></svg>